<svg width="22" height="20" viewBox="0 0 22 20" fill="none" xmlns="http://www.w3.org/2000/svg">
<path d="M9.25 18C9.25 18.4142 8.9142 18.75 8.5 18.75C8.08579 18.75 7.75 18.4142 7.75 18C7.75 17.5858 8.08579 17.25 8.5 17.25C8.9142 17.25 9.25 17.5858 9.25 18Z" stroke="#9D7756" stroke-width="1.5" stroke-linecap="round" stroke-linejoin="round"/>
<path d="M17.75 18C17.75 18.4142 17.4142 18.75 17 18.75C16.5858 18.75 16.25 18.4142 16.25 18C16.25 17.5858 16.5858 17.25 17 17.25C17.4142 17.25 17.75 17.5858 17.75 18Z" stroke="#9D7756" stroke-width="1.5" stroke-linecap="round" stroke-linejoin="round"/>
<path d="M0.75 0.75H0.95664C2.28124 0.75 2.94354 0.75 3.3755 1.15221C3.80746 1.55441 3.85464 2.21503 3.94902 3.53626L4.20035 7.05496C4.3424 9.0436 4.41342 10.0379 4.71476 10.8461C5.37531 12.6177 6.83229 13.9744 8.64648 14.507C9.4741 14.75 10.4767 14.75 12.4817 14.75C14.5873 14.75 15.64 14.75 16.4917 14.4916C18.4093 13.9099 19.9099 12.4093 20.4916 10.4917C20.75 9.64 20.75 8.5933 20.75 6.5C20.75 5.80222 20.75 5.45333 20.6639 5.16943C20.47 4.53023 19.9698 4.03002 19.3306 3.83612C19.0467 3.75 18.6978 3.75 18 3.75H4.25" stroke="#9D7756" stroke-width="1.5" stroke-linecap="round" stroke-linejoin="round"/>
<path d="M14.75 7.75V10.75M9.75 7.75V10.75" stroke="#9D7756" stroke-width="1.5" stroke-linecap="round" stroke-linejoin="round"/>
</svg>
