<svg width="15" height="13" viewBox="0 0 15 13" fill="none" xmlns="http://www.w3.org/2000/svg">
<path d="M6.54894 1.92705C6.8483 1.00574 8.1517 1.00574 8.45106 1.92705L8.95934 3.49139C9.09322 3.90341 9.47717 4.18237 9.9104 4.18237H11.5552C12.524 4.18237 12.9267 5.42199 12.143 5.99139L10.8123 6.9582C10.4618 7.21285 10.3152 7.66422 10.449 8.07624L10.9573 9.64058C11.2567 10.5619 10.2022 11.328 9.41849 10.7586L8.08779 9.7918C7.7373 9.53715 7.2627 9.53715 6.91221 9.7918L5.58151 10.7586C4.7978 11.328 3.74332 10.5619 4.04267 9.64058L4.55095 8.07624C4.68483 7.66422 4.53817 7.21285 4.18768 6.9582L2.85698 5.99139C2.07326 5.42199 2.47604 4.18237 3.44476 4.18237H5.0896C5.52283 4.18237 5.90678 3.90341 6.04066 3.49139L6.54894 1.92705Z" fill="#FFCA5F"/>
</svg>
