<svg width="222" height="56" viewBox="0 0 222 56" fill="none" xmlns="http://www.w3.org/2000/svg">
<g filter="url(#filter0_d_12_80)">
<path d="M14.752 5.472L21.856 4.512L18.448 20.544C19.984 20.416 21.392 19.744 22.672 18.528C23.984 17.312 25.008 15.808 25.744 14.016C26.48 12.224 26.848 10.464 26.848 8.736C26.848 6.816 26.352 5.248 25.36 4.032C24.368 2.816 22.88 2.208 20.896 2.208C16.992 2.208 13.936 3.232 11.728 5.28C9.55201 7.328 8.46401 10.192 8.46401 13.872C8.46401 15.056 8.57601 15.888 8.80001 16.368C9.02401 16.816 9.13601 17.072 9.13601 17.136C7.40801 17.136 6.11201 16.784 5.24801 16.08C4.41601 15.344 4.00001 14.144 4.00001 12.48C4.00001 10.432 4.83201 8.448 6.49601 6.528C8.19201 4.576 10.352 3.008 12.976 1.824C15.6 0.607998 18.224 -2.86102e-06 20.848 -2.86102e-06C23.376 -2.86102e-06 25.488 0.431997 27.184 1.296C28.88 2.16 30.128 3.312 30.928 4.752C31.76 6.16 32.176 7.728 32.176 9.456C32.176 11.536 31.6 13.568 30.448 15.552C29.328 17.536 27.712 19.168 25.6 20.448C23.488 21.696 21.056 22.32 18.304 22.32H18.064L15.136 36H8.22401L14.752 5.472Z" fill="#DDFFB6"/>
<path d="M38.2356 36.192C35.8676 36.192 33.9956 35.584 32.6196 34.368C31.2436 33.152 30.5556 31.232 30.5556 28.608C30.5556 26.432 31.0036 24.016 31.8996 21.36C32.7956 18.704 34.2356 16.416 36.2196 14.496C38.2036 12.544 40.6996 11.568 43.7076 11.568C47.8036 11.568 49.8516 14.128 49.8516 19.248V19.296C49.9476 19.328 50.1236 19.344 50.3796 19.344C51.4356 19.344 52.6516 19.072 54.0276 18.528C55.4036 17.952 56.6516 17.264 57.7716 16.464L58.2036 17.76C57.2756 18.752 56.0596 19.6 54.5556 20.304C53.0836 20.976 51.4676 21.456 49.7076 21.744C49.4516 24.656 48.7956 27.2 47.7396 29.376C46.6836 31.552 45.3236 33.232 43.6596 34.416C41.9956 35.6 40.1876 36.192 38.2356 36.192ZM40.1556 31.872C40.9236 31.872 41.6916 31.44 42.4596 30.576C43.2276 29.68 43.8996 28.48 44.4756 26.976C45.0516 25.44 45.4676 23.744 45.7236 21.888C44.8596 21.696 44.4276 21.024 44.4276 19.872C44.4276 18.56 44.9236 17.696 45.9156 17.28C45.8516 16.224 45.6916 15.504 45.4356 15.12C45.1796 14.704 44.7316 14.496 44.0916 14.496C43.0356 14.496 42.0116 15.264 41.0196 16.8C40.0276 18.336 39.2276 20.176 38.6196 22.32C38.0116 24.464 37.7076 26.352 37.7076 27.984C37.7076 29.52 37.8836 30.56 38.2356 31.104C38.5876 31.616 39.2276 31.872 40.1556 31.872Z" fill="#BCFFFF"/>
<path d="M55.9694 10.224H62.8814L62.1134 13.824C63.7134 12.448 65.5854 11.76 67.7294 11.76C69.5214 11.76 70.9454 12.352 72.0014 13.536C73.0574 14.72 73.5854 16.656 73.5854 19.344C73.5854 21.872 73.2174 24.432 72.4814 27.024C71.7454 29.584 70.4974 31.776 68.7374 33.6C66.9774 35.392 64.6574 36.288 61.7774 36.288C59.7294 36.288 58.3694 35.712 57.6974 34.56L55.2014 46.272L47.9534 48L55.9694 10.224ZM60.2894 32.112C61.8254 32.112 63.0894 31.392 64.0814 29.952C65.1054 28.512 65.8414 26.8 66.2894 24.816C66.7694 22.8 67.0094 20.928 67.0094 19.2C67.0094 16.544 66.2094 15.216 64.6094 15.216C64.0334 15.216 63.4414 15.424 62.8334 15.84C62.2574 16.256 61.7454 16.832 61.2974 17.568L58.4654 31.008C58.7214 31.744 59.3294 32.112 60.2894 32.112Z" fill="#DBA4FF"/>
<path d="M86.1985 36.768C82.5825 36.768 79.9265 35.856 78.2305 34.032C76.5345 32.208 75.6865 29.184 75.6865 24.96C75.6865 21.6 76.2465 17.984 77.3665 14.112C78.5185 10.24 80.3425 6.928 82.8385 4.176C85.3665 1.392 88.5665 -2.86102e-06 92.4385 -2.86102e-06C94.8385 -2.86102e-06 96.7745 0.527998 98.2465 1.584C99.7185 2.64 100.455 4.256 100.455 6.432C100.455 7.808 100.183 8.896 99.6385 9.696C99.0945 10.464 98.2465 10.848 97.0945 10.848C95.9425 10.848 95.0305 10.432 94.3585 9.6C94.9345 9.312 95.4465 8.736 95.8945 7.872C96.3425 7.008 96.5665 6.112 96.5665 5.184C96.5665 4.32 96.3265 3.616 95.8465 3.072C95.3985 2.528 94.6625 2.256 93.6385 2.256C91.9425 2.256 90.3265 3.424 88.7905 5.76C87.2545 8.064 86.0065 10.976 85.0465 14.496C84.1185 18.016 83.6545 21.408 83.6545 24.672C83.6545 27.104 84.0705 28.96 84.9025 30.24C85.7345 31.52 87.2385 32.16 89.4145 32.16C91.3025 32.16 93.0465 31.744 94.6465 30.912C96.2465 30.08 97.6225 28.896 98.7745 27.36L99.8785 27.84C99.0785 29.856 97.8945 31.536 96.3265 32.88C94.7585 34.224 93.0785 35.216 91.2865 35.856C89.4945 36.464 87.7985 36.768 86.1985 36.768ZM103.386 36.288C101.85 36.288 100.602 35.808 99.6419 34.848C98.7139 33.888 98.2499 32.448 98.2499 30.528C98.2499 29.728 98.3779 28.688 98.6339 27.408L101.898 12H108.81L105.354 28.32C105.258 28.8 105.21 29.248 105.21 29.664C105.21 30.976 105.69 31.632 106.65 31.632C107.546 31.632 108.314 31.264 108.954 30.528C109.594 29.76 110.106 28.72 110.49 27.408L113.754 12H120.666L117.21 28.32C117.082 28.8 117.018 29.312 117.018 29.856C117.018 30.496 117.162 30.96 117.45 31.248C117.77 31.504 118.282 31.632 118.986 31.632C119.882 31.632 120.65 31.248 121.29 30.48C121.962 29.712 122.49 28.688 122.874 27.408H124.89C123.706 30.864 122.234 33.216 120.474 34.464C118.746 35.68 117.002 36.288 115.242 36.288C113.866 36.288 112.762 35.904 111.93 35.136C111.13 34.368 110.65 33.232 110.49 31.728C109.402 33.488 108.25 34.688 107.034 35.328C105.85 35.968 104.634 36.288 103.386 36.288ZM128.34 36.288C126.804 36.288 125.508 36 124.452 35.424C123.396 34.816 122.612 34.048 122.1 33.12C121.588 32.16 121.332 31.168 121.332 30.144C121.332 29.088 121.588 28.176 122.1 27.408C122.58 26.608 123.172 26.032 123.876 25.68C125.124 23.44 126.212 21.184 127.14 18.912C128.068 16.608 128.948 14.128 129.78 11.472L136.884 10.512C137.044 14.608 137.316 19.04 137.7 23.808C137.86 25.728 137.94 27.12 137.94 27.984C137.94 28.72 137.876 29.328 137.748 29.808C139.252 28.944 140.404 28.144 141.204 27.408H143.22C141.172 29.776 138.724 31.776 135.876 33.408C134.948 34.4 133.796 35.136 132.42 35.616C131.076 36.064 129.716 36.288 128.34 36.288ZM126.804 32.496C127.988 32.496 128.98 32.144 129.78 31.44C130.58 30.736 130.98 29.6 130.98 28.032C130.98 27.072 130.884 25.728 130.692 24C130.372 20.352 130.164 17.904 130.068 16.656C129.3 19.184 128.004 22.208 126.18 25.728C126.916 26.112 127.284 26.672 127.284 27.408C127.284 28.016 127.076 28.56 126.66 29.04C126.276 29.52 125.78 29.76 125.172 29.76C124.5 29.76 124.068 29.552 123.876 29.136C123.876 30.288 124.1 31.136 124.548 31.68C125.028 32.224 125.78 32.496 126.804 32.496ZM145.948 36.288C144.412 36.288 143.164 35.808 142.204 34.848C141.276 33.888 140.812 32.448 140.812 30.528C140.812 29.728 140.94 28.688 141.196 27.408L144.076 13.92H142.492L142.876 12H144.46L145.9 5.376L153.004 4.416L151.372 12H154.252L153.868 13.92H150.988L147.916 28.32C147.788 28.8 147.724 29.312 147.724 29.856C147.724 30.496 147.868 30.96 148.156 31.248C148.476 31.504 148.988 31.632 149.692 31.632C150.62 31.632 151.484 31.248 152.284 30.48C153.084 29.68 153.66 28.656 154.012 27.408H156.028C154.844 30.864 153.324 33.216 151.468 34.464C149.612 35.68 147.772 36.288 145.948 36.288ZM161.001 36.192C158.633 36.192 156.761 35.584 155.385 34.368C154.009 33.152 153.321 31.232 153.321 28.608C153.321 26.432 153.769 24.016 154.665 21.36C155.561 18.704 157.001 16.416 158.985 14.496C160.969 12.544 163.465 11.568 166.473 11.568C170.569 11.568 172.617 14.128 172.617 19.248V19.296C172.713 19.328 172.889 19.344 173.145 19.344C174.201 19.344 175.417 19.072 176.793 18.528C178.169 17.952 179.417 17.264 180.537 16.464L180.969 17.76C180.041 18.752 178.825 19.6 177.321 20.304C175.849 20.976 174.233 21.456 172.473 21.744C172.217 24.656 171.561 27.2 170.505 29.376C169.449 31.552 168.089 33.232 166.425 34.416C164.761 35.6 162.953 36.192 161.001 36.192ZM162.921 31.872C163.689 31.872 164.457 31.44 165.225 30.576C165.993 29.68 166.665 28.48 167.241 26.976C167.817 25.44 168.233 23.744 168.489 21.888C167.625 21.696 167.193 21.024 167.193 19.872C167.193 18.56 167.689 17.696 168.681 17.28C168.617 16.224 168.457 15.504 168.201 15.12C167.945 14.704 167.497 14.496 166.857 14.496C165.801 14.496 164.777 15.264 163.785 16.8C162.793 18.336 161.993 20.176 161.385 22.32C160.777 24.464 160.473 26.352 160.473 27.984C160.473 29.52 160.649 30.56 161.001 31.104C161.353 31.616 161.993 31.872 162.921 31.872ZM203.455 36.288C201.759 36.288 200.527 35.776 199.759 34.752C198.991 33.728 198.607 32.432 198.607 30.864C198.607 30.192 198.687 29.44 198.847 28.608C199.007 27.744 199.167 26.912 199.327 26.112C199.519 25.312 199.647 24.8 199.711 24.576C199.967 23.456 200.207 22.352 200.431 21.264C200.655 20.176 200.767 19.296 200.767 18.624C200.767 16.992 200.191 16.176 199.039 16.176C198.207 16.176 197.471 16.592 196.831 17.424C196.191 18.224 195.679 19.28 195.295 20.592L192.031 36H185.119L188.623 19.44C188.719 19.056 188.767 18.656 188.767 18.24C188.767 16.832 188.287 16.128 187.327 16.128C186.431 16.128 185.647 16.544 184.975 17.376C184.335 18.176 183.823 19.248 183.439 20.592L180.175 36H173.263L178.351 12H185.263L184.735 14.496C186.367 12.672 188.319 11.76 190.591 11.76C193.407 11.76 195.055 13.136 195.535 15.888C197.295 13.168 199.519 11.808 202.207 11.808C203.839 11.808 205.135 12.256 206.095 13.152C207.055 14.048 207.535 15.408 207.535 17.232C207.535 18.16 207.423 19.2 207.199 20.352C206.975 21.472 206.655 22.848 206.239 24.48C205.983 25.472 205.743 26.448 205.519 27.408C205.327 28.336 205.231 29.072 205.231 29.616C205.231 30.256 205.375 30.752 205.663 31.104C205.951 31.456 206.447 31.632 207.151 31.632C207.919 31.632 208.447 31.536 208.735 31.344C208.543 32.976 207.951 34.208 206.959 35.04C205.999 35.872 204.831 36.288 203.455 36.288ZM214.023 36.192C212.967 36.192 212.071 35.824 211.335 35.088C210.599 34.352 210.231 33.456 210.231 32.4C210.231 31.344 210.599 30.448 211.335 29.712C212.071 28.944 212.967 28.56 214.023 28.56C215.079 28.56 215.975 28.944 216.711 29.712C217.479 30.448 217.863 31.344 217.863 32.4C217.863 33.456 217.479 34.352 216.711 35.088C215.975 35.824 215.079 36.192 214.023 36.192Z" fill="#FFFDE1"/>
</g>
<defs>
<filter id="filter0_d_12_80" x="0" y="0" width="221.863" height="56" filterUnits="userSpaceOnUse" color-interpolation-filters="sRGB">
<feFlood flood-opacity="0" result="BackgroundImageFix"/>
<feColorMatrix in="SourceAlpha" type="matrix" values="0 0 0 0 0 0 0 0 0 0 0 0 0 0 0 0 0 0 127 0" result="hardAlpha"/>
<feOffset dy="4"/>
<feGaussianBlur stdDeviation="2"/>
<feComposite in2="hardAlpha" operator="out"/>
<feColorMatrix type="matrix" values="0 0 0 0 0 0 0 0 0 0 0 0 0 0 0 0 0 0 0.25 0"/>
<feBlend mode="normal" in2="BackgroundImageFix" result="effect1_dropShadow_12_80"/>
<feBlend mode="normal" in="SourceGraphic" in2="effect1_dropShadow_12_80" result="shape"/>
</filter>
</defs>
</svg>
